<mxfile host="Electron" agent="Mozilla/5.0 (X11; Linux x86_64) AppleWebKit/537.36 (KHTML, like Gecko) draw.io/26.0.9 Chrome/128.0.6613.186 Electron/32.2.5 Safari/537.36" version="26.0.9">
  <diagram name="Page-1" id="5CcUMo_zeev120peCMlp">
    <mxGraphModel dx="1244" dy="1862" grid="1" gridSize="10" guides="1" tooltips="1" connect="1" arrows="1" fold="1" page="1" pageScale="1" pageWidth="850" pageHeight="1100" math="0" shadow="0">
      <root>
        <mxCell id="0" />
        <mxCell id="1" parent="0" />
        <mxCell id="q1TMF-VWdotxJ6h3HPpI-75" value="User space code" style="swimlane;whiteSpace=wrap;html=1;" vertex="1" parent="1">
          <mxGeometry x="450" y="630" width="380" height="430" as="geometry" />
        </mxCell>
        <mxCell id="q1TMF-VWdotxJ6h3HPpI-37" value="some user Gui" style="rounded=1;whiteSpace=wrap;html=1;fillColor=#ffe6cc;strokeColor=#d79b00;" vertex="1" parent="q1TMF-VWdotxJ6h3HPpI-75">
          <mxGeometry x="220" y="140" width="120" height="60" as="geometry" />
        </mxCell>
        <mxCell id="q1TMF-VWdotxJ6h3HPpI-14" value="Scene" style="rounded=1;whiteSpace=wrap;html=1;fillColor=#fff2cc;strokeColor=#d6b656;" vertex="1" parent="q1TMF-VWdotxJ6h3HPpI-75">
          <mxGeometry x="20" y="188" width="120" height="60" as="geometry" />
        </mxCell>
        <mxCell id="q1TMF-VWdotxJ6h3HPpI-40" value="Inputs handle&lt;br&gt;&lt;span style=&quot;text-wrap: nowrap;&quot;&gt;Opional to implement &lt;br&gt;if user want add controls&lt;/span&gt;" style="rounded=1;whiteSpace=wrap;html=1;" vertex="1" parent="q1TMF-VWdotxJ6h3HPpI-75">
          <mxGeometry x="210" y="50" width="140" height="80" as="geometry" />
        </mxCell>
        <mxCell id="q1TMF-VWdotxJ6h3HPpI-52" value="Render pipe classes" style="swimlane;whiteSpace=wrap;html=1;swimlaneFillColor=#E6FFCC;fillColor=#f5f5f5;fontColor=#333333;strokeColor=#666666;" vertex="1" parent="1">
          <mxGeometry x="400" y="-40" width="310" height="220" as="geometry" />
        </mxCell>
        <mxCell id="q1TMF-VWdotxJ6h3HPpI-2" value="Renderer" style="rounded=1;whiteSpace=wrap;html=1;" vertex="1" parent="q1TMF-VWdotxJ6h3HPpI-52">
          <mxGeometry x="20" y="40" width="120" height="60" as="geometry" />
        </mxCell>
        <mxCell id="q1TMF-VWdotxJ6h3HPpI-4" value="Shader" style="rounded=1;whiteSpace=wrap;html=1;" vertex="1" parent="q1TMF-VWdotxJ6h3HPpI-52">
          <mxGeometry x="165" y="40" width="120" height="60" as="geometry" />
        </mxCell>
        <mxCell id="q1TMF-VWdotxJ6h3HPpI-5" value="Material" style="rounded=1;whiteSpace=wrap;html=1;" vertex="1" parent="q1TMF-VWdotxJ6h3HPpI-52">
          <mxGeometry x="165" y="120" width="120" height="60" as="geometry" />
        </mxCell>
        <mxCell id="q1TMF-VWdotxJ6h3HPpI-6" value="Mesh" style="rounded=1;whiteSpace=wrap;html=1;" vertex="1" parent="q1TMF-VWdotxJ6h3HPpI-52">
          <mxGeometry x="20" y="120" width="120" height="60" as="geometry" />
        </mxCell>
        <mxCell id="q1TMF-VWdotxJ6h3HPpI-50" value="Core classes" style="swimlane;whiteSpace=wrap;html=1;fillColor=#f5f5f5;fontColor=#333333;strokeColor=#666666;swimlaneFillColor=#D9EDE2;" vertex="1" parent="1">
          <mxGeometry x="10" y="30" width="280" height="610" as="geometry" />
        </mxCell>
        <mxCell id="q1TMF-VWdotxJ6h3HPpI-1" value="Engine" style="rounded=1;whiteSpace=wrap;html=1;" vertex="1" parent="1">
          <mxGeometry x="90" y="80" width="120" height="60" as="geometry" />
        </mxCell>
        <mxCell id="q1TMF-VWdotxJ6h3HPpI-47" style="edgeStyle=orthogonalEdgeStyle;rounded=0;orthogonalLoop=1;jettySize=auto;html=1;exitX=1;exitY=0.5;exitDx=0;exitDy=0;entryX=0;entryY=0.5;entryDx=0;entryDy=0;" edge="1" parent="1" source="q1TMF-VWdotxJ6h3HPpI-4" target="q1TMF-VWdotxJ6h3HPpI-46">
          <mxGeometry relative="1" as="geometry" />
        </mxCell>
        <mxCell id="q1TMF-VWdotxJ6h3HPpI-7" value="1" style="endArrow=open;html=1;endSize=12;startArrow=diamondThin;startSize=14;startFill=1;edgeStyle=orthogonalEdgeStyle;align=left;verticalAlign=bottom;rounded=0;exitX=1;exitY=0.5;exitDx=0;exitDy=0;entryX=0;entryY=0.5;entryDx=0;entryDy=0;" edge="1" parent="1" source="q1TMF-VWdotxJ6h3HPpI-1" target="q1TMF-VWdotxJ6h3HPpI-2">
          <mxGeometry x="-1" y="3" relative="1" as="geometry">
            <mxPoint x="340" y="530" as="sourcePoint" />
            <mxPoint x="500" y="530" as="targetPoint" />
            <Array as="points">
              <mxPoint x="350" y="110" />
              <mxPoint x="350" y="30" />
            </Array>
          </mxGeometry>
        </mxCell>
        <mxCell id="q1TMF-VWdotxJ6h3HPpI-8" value="InputManader/Handler" style="rounded=1;whiteSpace=wrap;html=1;" vertex="1" parent="1">
          <mxGeometry x="90" y="260" width="120" height="60" as="geometry" />
        </mxCell>
        <mxCell id="q1TMF-VWdotxJ6h3HPpI-9" value="Camera" style="rounded=1;whiteSpace=wrap;html=1;" vertex="1" parent="1">
          <mxGeometry x="90" y="350" width="120" height="60" as="geometry" />
        </mxCell>
        <mxCell id="q1TMF-VWdotxJ6h3HPpI-10" value="GuiManager" style="rounded=1;whiteSpace=wrap;html=1;" vertex="1" parent="1">
          <mxGeometry x="160" y="550" width="120" height="60" as="geometry" />
        </mxCell>
        <mxCell id="q1TMF-VWdotxJ6h3HPpI-12" value="SceneManager" style="rounded=1;whiteSpace=wrap;html=1;" vertex="1" parent="1">
          <mxGeometry x="20" y="550" width="120" height="60" as="geometry" />
        </mxCell>
        <mxCell id="q1TMF-VWdotxJ6h3HPpI-13" value="Obstract Scene" style="rounded=1;whiteSpace=wrap;html=1;" vertex="1" parent="1">
          <mxGeometry x="190" y="818" width="120" height="60" as="geometry" />
        </mxCell>
        <mxCell id="q1TMF-VWdotxJ6h3HPpI-15" value="1" style="endArrow=open;html=1;endSize=12;startArrow=diamondThin;startSize=14;startFill=0;edgeStyle=orthogonalEdgeStyle;align=left;verticalAlign=bottom;rounded=0;exitX=0.5;exitY=1;exitDx=0;exitDy=0;entryX=0;entryY=0.5;entryDx=0;entryDy=0;" edge="1" parent="1" source="q1TMF-VWdotxJ6h3HPpI-12" target="q1TMF-VWdotxJ6h3HPpI-13">
          <mxGeometry x="-1" y="3" relative="1" as="geometry">
            <mxPoint x="340" y="410" as="sourcePoint" />
            <mxPoint x="500" y="410" as="targetPoint" />
          </mxGeometry>
        </mxCell>
        <mxCell id="q1TMF-VWdotxJ6h3HPpI-16" value="" style="endArrow=block;dashed=1;endFill=0;endSize=12;html=1;rounded=0;exitX=0;exitY=0.5;exitDx=0;exitDy=0;entryX=1;entryY=0.5;entryDx=0;entryDy=0;" edge="1" parent="1" source="q1TMF-VWdotxJ6h3HPpI-14" target="q1TMF-VWdotxJ6h3HPpI-13">
          <mxGeometry width="160" relative="1" as="geometry">
            <mxPoint x="340" y="410" as="sourcePoint" />
            <mxPoint x="500" y="410" as="targetPoint" />
          </mxGeometry>
        </mxCell>
        <mxCell id="q1TMF-VWdotxJ6h3HPpI-17" value="1" style="endArrow=open;html=1;endSize=12;startArrow=diamondThin;startSize=14;startFill=1;edgeStyle=orthogonalEdgeStyle;align=left;verticalAlign=bottom;rounded=0;exitX=0.25;exitY=1;exitDx=0;exitDy=0;entryX=0.5;entryY=0;entryDx=0;entryDy=0;" edge="1" parent="1" source="q1TMF-VWdotxJ6h3HPpI-25" target="q1TMF-VWdotxJ6h3HPpI-12">
          <mxGeometry x="-1" y="3" relative="1" as="geometry">
            <mxPoint x="340" y="410" as="sourcePoint" />
            <mxPoint x="70" y="570" as="targetPoint" />
            <Array as="points">
              <mxPoint x="120" y="520" />
              <mxPoint x="80" y="520" />
            </Array>
          </mxGeometry>
        </mxCell>
        <mxCell id="q1TMF-VWdotxJ6h3HPpI-18" value="1" style="endArrow=open;html=1;endSize=12;startArrow=diamondThin;startSize=14;startFill=1;edgeStyle=orthogonalEdgeStyle;align=left;verticalAlign=bottom;rounded=0;exitX=0;exitY=0.75;exitDx=0;exitDy=0;entryX=0;entryY=0.5;entryDx=0;entryDy=0;" edge="1" parent="1" source="q1TMF-VWdotxJ6h3HPpI-1" target="q1TMF-VWdotxJ6h3HPpI-8">
          <mxGeometry x="-1" y="3" relative="1" as="geometry">
            <mxPoint x="340" y="410" as="sourcePoint" />
            <mxPoint x="500" y="410" as="targetPoint" />
            <Array as="points">
              <mxPoint x="70" y="125" />
              <mxPoint x="70" y="290" />
            </Array>
          </mxGeometry>
        </mxCell>
        <mxCell id="q1TMF-VWdotxJ6h3HPpI-19" value="1" style="endArrow=open;html=1;endSize=12;startArrow=diamondThin;startSize=14;startFill=1;edgeStyle=orthogonalEdgeStyle;align=left;verticalAlign=bottom;rounded=0;exitX=0;exitY=0.75;exitDx=0;exitDy=0;entryX=0;entryY=0.5;entryDx=0;entryDy=0;" edge="1" parent="1" source="q1TMF-VWdotxJ6h3HPpI-1" target="q1TMF-VWdotxJ6h3HPpI-9">
          <mxGeometry x="-1" y="3" relative="1" as="geometry">
            <mxPoint x="470" y="430" as="sourcePoint" />
            <mxPoint x="630" y="430" as="targetPoint" />
            <Array as="points">
              <mxPoint x="70" y="125" />
              <mxPoint x="70" y="380" />
            </Array>
          </mxGeometry>
        </mxCell>
        <mxCell id="q1TMF-VWdotxJ6h3HPpI-20" value="1" style="endArrow=open;html=1;endSize=12;startArrow=diamondThin;startSize=14;startFill=1;edgeStyle=orthogonalEdgeStyle;align=left;verticalAlign=bottom;rounded=0;exitX=0;exitY=0.75;exitDx=0;exitDy=0;entryX=0;entryY=0.5;entryDx=0;entryDy=0;" edge="1" parent="1" source="q1TMF-VWdotxJ6h3HPpI-1" target="q1TMF-VWdotxJ6h3HPpI-25">
          <mxGeometry x="-1" y="3" relative="1" as="geometry">
            <mxPoint x="470" y="540" as="sourcePoint" />
            <mxPoint x="80" y="480" as="targetPoint" />
            <Array as="points">
              <mxPoint x="70" y="125" />
              <mxPoint x="70" y="470" />
            </Array>
          </mxGeometry>
        </mxCell>
        <mxCell id="q1TMF-VWdotxJ6h3HPpI-21" value="" style="rounded=0;whiteSpace=wrap;html=1;fillColor=#f5f5f5;fontColor=#333333;strokeColor=#666666;" vertex="1" parent="1">
          <mxGeometry x="1000" y="578" width="730" height="560" as="geometry" />
        </mxCell>
        <mxCell id="q1TMF-VWdotxJ6h3HPpI-22" value="MenuBar" style="rounded=0;whiteSpace=wrap;html=1;fillColor=#dae8fc;strokeColor=#6c8ebf;" vertex="1" parent="1">
          <mxGeometry x="1010" y="588" width="710" height="30" as="geometry" />
        </mxCell>
        <mxCell id="q1TMF-VWdotxJ6h3HPpI-23" value="Scene" style="rounded=0;whiteSpace=wrap;html=1;fillColor=#fff2cc;strokeColor=#d6b656;" vertex="1" parent="1">
          <mxGeometry x="1010" y="628" width="710" height="500" as="geometry" />
        </mxCell>
        <mxCell id="q1TMF-VWdotxJ6h3HPpI-24" value="WindowView" style="text;html=1;align=center;verticalAlign=middle;resizable=0;points=[];autosize=1;strokeColor=none;fillColor=none;" vertex="1" parent="1">
          <mxGeometry x="990" y="548" width="90" height="30" as="geometry" />
        </mxCell>
        <mxCell id="q1TMF-VWdotxJ6h3HPpI-25" value="WindowView" style="rounded=1;whiteSpace=wrap;html=1;" vertex="1" parent="1">
          <mxGeometry x="90" y="440" width="120" height="60" as="geometry" />
        </mxCell>
        <mxCell id="q1TMF-VWdotxJ6h3HPpI-26" value="1" style="endArrow=open;html=1;endSize=12;startArrow=diamondThin;startSize=14;startFill=1;edgeStyle=orthogonalEdgeStyle;align=left;verticalAlign=bottom;rounded=0;exitX=0.75;exitY=1;exitDx=0;exitDy=0;" edge="1" parent="1" source="q1TMF-VWdotxJ6h3HPpI-25" target="q1TMF-VWdotxJ6h3HPpI-10">
          <mxGeometry x="-1" y="3" relative="1" as="geometry">
            <mxPoint x="570" y="540" as="sourcePoint" />
            <mxPoint x="730" y="540" as="targetPoint" />
            <Array as="points">
              <mxPoint x="180" y="520" />
              <mxPoint x="220" y="520" />
            </Array>
          </mxGeometry>
        </mxCell>
        <mxCell id="q1TMF-VWdotxJ6h3HPpI-27" value="SceneGuiManager" style="rounded=1;whiteSpace=wrap;html=1;" vertex="1" parent="1">
          <mxGeometry x="290" y="660" width="120" height="60" as="geometry" />
        </mxCell>
        <mxCell id="q1TMF-VWdotxJ6h3HPpI-29" value="IGuiElement" style="rounded=1;whiteSpace=wrap;html=1;" vertex="1" parent="1">
          <mxGeometry x="460" y="400" width="120" height="60" as="geometry" />
        </mxCell>
        <mxCell id="q1TMF-VWdotxJ6h3HPpI-30" value="1" style="endArrow=open;html=1;endSize=12;startArrow=diamondThin;startSize=14;startFill=0;edgeStyle=orthogonalEdgeStyle;align=left;verticalAlign=bottom;rounded=0;exitX=1;exitY=0.5;exitDx=0;exitDy=0;entryX=0;entryY=0.5;entryDx=0;entryDy=0;" edge="1" parent="1" source="q1TMF-VWdotxJ6h3HPpI-10" target="q1TMF-VWdotxJ6h3HPpI-29">
          <mxGeometry x="-1" y="3" relative="1" as="geometry">
            <mxPoint x="90" y="620" as="sourcePoint" />
            <mxPoint x="230" y="790" as="targetPoint" />
            <Array as="points">
              <mxPoint x="350" y="580" />
              <mxPoint x="350" y="430" />
            </Array>
          </mxGeometry>
        </mxCell>
        <mxCell id="q1TMF-VWdotxJ6h3HPpI-31" value="1" style="endArrow=open;html=1;endSize=12;startArrow=diamondThin;startSize=14;startFill=0;edgeStyle=orthogonalEdgeStyle;align=left;verticalAlign=bottom;rounded=0;exitX=0.5;exitY=0;exitDx=0;exitDy=0;entryX=0;entryY=0.5;entryDx=0;entryDy=0;" edge="1" parent="1" source="q1TMF-VWdotxJ6h3HPpI-27" target="q1TMF-VWdotxJ6h3HPpI-29">
          <mxGeometry x="-0.8462" relative="1" as="geometry">
            <mxPoint x="290" y="590" as="sourcePoint" />
            <mxPoint x="420" y="630" as="targetPoint" />
            <Array as="points">
              <mxPoint x="350" y="660" />
              <mxPoint x="350" y="620" />
            </Array>
            <mxPoint as="offset" />
          </mxGeometry>
        </mxCell>
        <mxCell id="q1TMF-VWdotxJ6h3HPpI-32" value="1" style="endArrow=open;html=1;endSize=12;startArrow=diamondThin;startSize=14;startFill=1;edgeStyle=orthogonalEdgeStyle;align=left;verticalAlign=bottom;rounded=0;exitX=0.5;exitY=0;exitDx=0;exitDy=0;entryX=0;entryY=0.5;entryDx=0;entryDy=0;" edge="1" parent="1" source="q1TMF-VWdotxJ6h3HPpI-13" target="q1TMF-VWdotxJ6h3HPpI-27">
          <mxGeometry x="-0.8" relative="1" as="geometry">
            <mxPoint x="190" y="510" as="sourcePoint" />
            <mxPoint x="230" y="560" as="targetPoint" />
            <Array as="points">
              <mxPoint x="250" y="690" />
            </Array>
            <mxPoint as="offset" />
          </mxGeometry>
        </mxCell>
        <mxCell id="q1TMF-VWdotxJ6h3HPpI-35" style="edgeStyle=orthogonalEdgeStyle;rounded=0;orthogonalLoop=1;jettySize=auto;html=1;exitX=1;exitY=0.5;exitDx=0;exitDy=0;entryX=0;entryY=0.5;entryDx=0;entryDy=0;" edge="1" parent="1" source="q1TMF-VWdotxJ6h3HPpI-33" target="q1TMF-VWdotxJ6h3HPpI-22">
          <mxGeometry relative="1" as="geometry">
            <Array as="points">
              <mxPoint x="970" y="430" />
              <mxPoint x="970" y="603" />
            </Array>
          </mxGeometry>
        </mxCell>
        <mxCell id="q1TMF-VWdotxJ6h3HPpI-34" value="" style="endArrow=block;dashed=1;endFill=0;endSize=12;html=1;rounded=0;exitX=0;exitY=0.5;exitDx=0;exitDy=0;entryX=1;entryY=0.5;entryDx=0;entryDy=0;" edge="1" parent="1" source="q1TMF-VWdotxJ6h3HPpI-33" target="q1TMF-VWdotxJ6h3HPpI-29">
          <mxGeometry width="160" relative="1" as="geometry">
            <mxPoint x="420" y="470" as="sourcePoint" />
            <mxPoint x="580" y="470" as="targetPoint" />
          </mxGeometry>
        </mxCell>
        <mxCell id="q1TMF-VWdotxJ6h3HPpI-36" value="some user defined gui" style="rounded=0;whiteSpace=wrap;html=1;fillColor=#ffe6cc;strokeColor=#d79b00;" vertex="1" parent="1">
          <mxGeometry x="1060" y="770" width="120" height="60" as="geometry" />
        </mxCell>
        <mxCell id="q1TMF-VWdotxJ6h3HPpI-38" style="edgeStyle=orthogonalEdgeStyle;rounded=0;orthogonalLoop=1;jettySize=auto;html=1;exitX=1;exitY=0.5;exitDx=0;exitDy=0;entryX=0;entryY=0.5;entryDx=0;entryDy=0;" edge="1" parent="1" source="q1TMF-VWdotxJ6h3HPpI-37" target="q1TMF-VWdotxJ6h3HPpI-36">
          <mxGeometry relative="1" as="geometry">
            <mxPoint x="740" y="730" as="sourcePoint" />
            <mxPoint x="1030" y="720" as="targetPoint" />
            <Array as="points" />
          </mxGeometry>
        </mxCell>
        <mxCell id="q1TMF-VWdotxJ6h3HPpI-39" value="" style="endArrow=block;dashed=1;endFill=0;endSize=12;html=1;rounded=0;exitX=0;exitY=0.25;exitDx=0;exitDy=0;entryX=0.5;entryY=1;entryDx=0;entryDy=0;" edge="1" parent="1" source="q1TMF-VWdotxJ6h3HPpI-37" target="q1TMF-VWdotxJ6h3HPpI-29">
          <mxGeometry width="160" relative="1" as="geometry">
            <mxPoint x="635" y="630" as="sourcePoint" />
            <mxPoint x="580" y="630" as="targetPoint" />
            <Array as="points">
              <mxPoint x="520" y="785" />
            </Array>
          </mxGeometry>
        </mxCell>
        <mxCell id="q1TMF-VWdotxJ6h3HPpI-42" style="edgeStyle=orthogonalEdgeStyle;rounded=0;orthogonalLoop=1;jettySize=auto;html=1;exitX=1;exitY=0.5;exitDx=0;exitDy=0;" edge="1" parent="1" source="q1TMF-VWdotxJ6h3HPpI-40">
          <mxGeometry relative="1" as="geometry">
            <mxPoint x="1010" y="720" as="targetPoint" />
            <Array as="points">
              <mxPoint x="1010" y="720" />
            </Array>
          </mxGeometry>
        </mxCell>
        <mxCell id="q1TMF-VWdotxJ6h3HPpI-43" value="adds triggers to the scene" style="text;html=1;align=center;verticalAlign=middle;resizable=0;points=[];autosize=1;strokeColor=none;fillColor=none;" vertex="1" parent="1">
          <mxGeometry x="825" y="690" width="160" height="30" as="geometry" />
        </mxCell>
        <mxCell id="q1TMF-VWdotxJ6h3HPpI-44" value="" style="endArrow=block;dashed=1;endFill=0;endSize=12;html=1;rounded=0;exitX=0;exitY=0.5;exitDx=0;exitDy=0;entryX=0.5;entryY=1;entryDx=0;entryDy=0;" edge="1" parent="1" source="q1TMF-VWdotxJ6h3HPpI-40" target="q1TMF-VWdotxJ6h3HPpI-45">
          <mxGeometry width="160" relative="1" as="geometry">
            <mxPoint x="430" y="450" as="sourcePoint" />
            <mxPoint x="390" y="390" as="targetPoint" />
            <Array as="points">
              <mxPoint x="550" y="720" />
              <mxPoint x="330" y="520" />
            </Array>
          </mxGeometry>
        </mxCell>
        <mxCell id="q1TMF-VWdotxJ6h3HPpI-45" value="IInputManager" style="rounded=1;whiteSpace=wrap;html=1;" vertex="1" parent="1">
          <mxGeometry x="270" y="220" width="120" height="60" as="geometry" />
        </mxCell>
        <mxCell id="q1TMF-VWdotxJ6h3HPpI-46" value="GPU" style="ellipse;whiteSpace=wrap;html=1;aspect=fixed;" vertex="1" parent="1">
          <mxGeometry x="970" y="-200" width="80" height="80" as="geometry" />
        </mxCell>
        <mxCell id="q1TMF-VWdotxJ6h3HPpI-53" value="Abstract Object" style="rounded=1;whiteSpace=wrap;html=1;" vertex="1" parent="1">
          <mxGeometry x="470" y="240" width="120" height="60" as="geometry" />
        </mxCell>
        <mxCell id="q1TMF-VWdotxJ6h3HPpI-54" value="1" style="endArrow=open;html=1;endSize=12;startArrow=diamondThin;startSize=14;startFill=1;edgeStyle=orthogonalEdgeStyle;align=left;verticalAlign=bottom;rounded=0;exitX=0.5;exitY=0;exitDx=0;exitDy=0;entryX=0.5;entryY=1;entryDx=0;entryDy=0;" edge="1" parent="1" source="q1TMF-VWdotxJ6h3HPpI-53" target="q1TMF-VWdotxJ6h3HPpI-5">
          <mxGeometry x="-0.9048" y="-10" relative="1" as="geometry">
            <mxPoint x="510" y="120" as="sourcePoint" />
            <mxPoint x="670" y="120" as="targetPoint" />
            <mxPoint as="offset" />
          </mxGeometry>
        </mxCell>
        <mxCell id="q1TMF-VWdotxJ6h3HPpI-58" value="1" style="endArrow=open;html=1;endSize=12;startArrow=diamondThin;startSize=14;startFill=1;edgeStyle=orthogonalEdgeStyle;align=left;verticalAlign=bottom;rounded=0;exitX=0.5;exitY=0;exitDx=0;exitDy=0;entryX=0.482;entryY=1.01;entryDx=0;entryDy=0;entryPerimeter=0;" edge="1" parent="1" source="q1TMF-VWdotxJ6h3HPpI-53" target="q1TMF-VWdotxJ6h3HPpI-6">
          <mxGeometry x="-0.9048" y="-10" relative="1" as="geometry">
            <mxPoint x="540" y="250" as="sourcePoint" />
            <mxPoint x="650" y="150" as="targetPoint" />
            <mxPoint as="offset" />
          </mxGeometry>
        </mxCell>
        <mxCell id="q1TMF-VWdotxJ6h3HPpI-59" value="Physics classes" style="swimlane;whiteSpace=wrap;html=1;swimlaneFillColor=default;fillColor=#f5f5f5;fontColor=#333333;strokeColor=#666666;" vertex="1" parent="1">
          <mxGeometry x="800" y="80" width="210" height="240" as="geometry" />
        </mxCell>
        <mxCell id="q1TMF-VWdotxJ6h3HPpI-61" value="RigidBody" style="rounded=1;whiteSpace=wrap;html=1;" vertex="1" parent="q1TMF-VWdotxJ6h3HPpI-59">
          <mxGeometry x="70" y="160" width="120" height="60" as="geometry" />
        </mxCell>
        <mxCell id="q1TMF-VWdotxJ6h3HPpI-62" value="Collider" style="rounded=1;whiteSpace=wrap;html=1;" vertex="1" parent="q1TMF-VWdotxJ6h3HPpI-59">
          <mxGeometry x="70" y="70" width="120" height="60" as="geometry" />
        </mxCell>
        <mxCell id="q1TMF-VWdotxJ6h3HPpI-63" value="Use" style="endArrow=open;endSize=12;dashed=1;html=1;rounded=0;exitX=0;exitY=0.5;exitDx=0;exitDy=0;entryX=1;entryY=0.75;entryDx=0;entryDy=0;" edge="1" parent="1" source="q1TMF-VWdotxJ6h3HPpI-59" target="q1TMF-VWdotxJ6h3HPpI-4">
          <mxGeometry width="160" relative="1" as="geometry">
            <mxPoint x="820" y="90" as="sourcePoint" />
            <mxPoint x="980" y="90" as="targetPoint" />
            <Array as="points">
              <mxPoint x="770" y="200" />
              <mxPoint x="770" y="45" />
            </Array>
          </mxGeometry>
        </mxCell>
        <mxCell id="q1TMF-VWdotxJ6h3HPpI-64" value="" style="rounded=1;whiteSpace=wrap;html=1;" vertex="1" parent="1">
          <mxGeometry x="640" y="960" width="120" height="60" as="geometry" />
        </mxCell>
        <mxCell id="q1TMF-VWdotxJ6h3HPpI-65" value="" style="rounded=1;whiteSpace=wrap;html=1;" vertex="1" parent="1">
          <mxGeometry x="650" y="970" width="120" height="60" as="geometry" />
        </mxCell>
        <mxCell id="q1TMF-VWdotxJ6h3HPpI-66" value="" style="rounded=1;whiteSpace=wrap;html=1;" vertex="1" parent="1">
          <mxGeometry x="660" y="980" width="120" height="60" as="geometry" />
        </mxCell>
        <mxCell id="q1TMF-VWdotxJ6h3HPpI-67" value="Object1" style="rounded=1;whiteSpace=wrap;html=1;" vertex="1" parent="1">
          <mxGeometry x="670" y="990" width="120" height="60" as="geometry" />
        </mxCell>
        <mxCell id="q1TMF-VWdotxJ6h3HPpI-68" value="Extends" style="endArrow=block;endSize=16;endFill=0;html=1;rounded=0;exitX=0.5;exitY=0;exitDx=0;exitDy=0;entryX=1;entryY=0.5;entryDx=0;entryDy=0;" edge="1" parent="1" source="q1TMF-VWdotxJ6h3HPpI-40" target="q1TMF-VWdotxJ6h3HPpI-53">
          <mxGeometry x="-0.91" width="160" relative="1" as="geometry">
            <mxPoint x="690" y="780" as="sourcePoint" />
            <mxPoint x="580" y="90" as="targetPoint" />
            <Array as="points">
              <mxPoint x="730" y="670" />
              <mxPoint x="650" y="670" />
              <mxPoint x="650" y="270" />
            </Array>
            <mxPoint as="offset" />
          </mxGeometry>
        </mxCell>
        <mxCell id="q1TMF-VWdotxJ6h3HPpI-69" value="Relation" style="endArrow=open;html=1;endSize=12;startArrow=diamondThin;startSize=14;startFill=0;edgeStyle=orthogonalEdgeStyle;rounded=0;entryX=0;entryY=0.5;entryDx=0;entryDy=0;" edge="1" parent="1" source="q1TMF-VWdotxJ6h3HPpI-27" target="q1TMF-VWdotxJ6h3HPpI-37">
          <mxGeometry relative="1" as="geometry">
            <mxPoint x="530" y="530" as="sourcePoint" />
            <mxPoint x="620" y="690" as="targetPoint" />
            <Array as="points">
              <mxPoint x="440" y="690" />
              <mxPoint x="440" y="800" />
            </Array>
          </mxGeometry>
        </mxCell>
        <mxCell id="q1TMF-VWdotxJ6h3HPpI-70" value="0..n" style="edgeLabel;resizable=0;html=1;align=left;verticalAlign=top;" connectable="0" vertex="1" parent="q1TMF-VWdotxJ6h3HPpI-69">
          <mxGeometry x="-1" relative="1" as="geometry" />
        </mxCell>
        <mxCell id="q1TMF-VWdotxJ6h3HPpI-71" value="1" style="edgeLabel;resizable=0;html=1;align=right;verticalAlign=top;" connectable="0" vertex="1" parent="q1TMF-VWdotxJ6h3HPpI-69">
          <mxGeometry x="1" relative="1" as="geometry" />
        </mxCell>
        <mxCell id="q1TMF-VWdotxJ6h3HPpI-72" value="Relation" style="endArrow=open;html=1;endSize=12;startArrow=diamondThin;startSize=14;startFill=0;edgeStyle=orthogonalEdgeStyle;rounded=0;entryX=0;entryY=0.5;entryDx=0;entryDy=0;exitX=0.5;exitY=1;exitDx=0;exitDy=0;" edge="1" parent="1" source="q1TMF-VWdotxJ6h3HPpI-14" target="q1TMF-VWdotxJ6h3HPpI-65">
          <mxGeometry relative="1" as="geometry">
            <mxPoint x="440" y="877.47" as="sourcePoint" />
            <mxPoint x="651" y="876.47" as="targetPoint" />
          </mxGeometry>
        </mxCell>
        <mxCell id="q1TMF-VWdotxJ6h3HPpI-73" value="0..n" style="edgeLabel;resizable=0;html=1;align=left;verticalAlign=top;" connectable="0" vertex="1" parent="q1TMF-VWdotxJ6h3HPpI-72">
          <mxGeometry x="-1" relative="1" as="geometry" />
        </mxCell>
        <mxCell id="q1TMF-VWdotxJ6h3HPpI-74" value="1" style="edgeLabel;resizable=0;html=1;align=right;verticalAlign=top;" connectable="0" vertex="1" parent="q1TMF-VWdotxJ6h3HPpI-72">
          <mxGeometry x="1" relative="1" as="geometry" />
        </mxCell>
        <mxCell id="q1TMF-VWdotxJ6h3HPpI-28" style="edgeStyle=orthogonalEdgeStyle;rounded=0;orthogonalLoop=1;jettySize=auto;html=1;exitX=1;exitY=0.5;exitDx=0;exitDy=0;entryX=0;entryY=0.441;entryDx=0;entryDy=0;entryPerimeter=0;" edge="1" parent="1" source="q1TMF-VWdotxJ6h3HPpI-14" target="q1TMF-VWdotxJ6h3HPpI-23">
          <mxGeometry relative="1" as="geometry">
            <mxPoint x="980" y="860" as="targetPoint" />
            <Array as="points">
              <mxPoint x="980" y="848" />
              <mxPoint x="1010" y="849" />
            </Array>
          </mxGeometry>
        </mxCell>
        <mxCell id="q1TMF-VWdotxJ6h3HPpI-33" value="MenuBar" style="rounded=1;whiteSpace=wrap;html=1;fillColor=#dae8fc;strokeColor=#6c8ebf;" vertex="1" parent="1">
          <mxGeometry x="610" y="400" width="120" height="60" as="geometry" />
        </mxCell>
      </root>
    </mxGraphModel>
  </diagram>
</mxfile>
